# xmcd CD database file
#
# Track frame offsets:
#	150
#	22545
#	52027
#	69434
#	94217
#	115188
#	145781
#	166076
#	182151
#	205447
#
# Disc length: 3082 seconds
#
# Revision: 0
# Processed by: cddbd v1.5.2PL0 Copyright (c) Steve Scherf et al.
# Submitted via: CDex 1.40Release
#
DISCID=820c080a
DTITLE=Harmonica Shah - Motor City Mojo
DYEAR=2000
DGENRE=Blues
TTITLE0=Dirty Old Bastard
TTITLE1=Detroit Playboy
TTITLE2=My Baby Left Me, Left Me A Mule
TTITLE3=Old Hound Dog
TTITLE4=Big Boss Man
TTITLE5=One Eyed Woman
TTITLE6=My Old Time Used To Be
TTITLE7=The Sky Is Crying
TTITLE8=Jam At Long Tooth John's Junkyard
TTITLE9=I Get More On The Street
EXTD=YEAR: 2000 ID3G: 0
EXTT0=
EXTT1=
EXTT2=
EXTT3=
EXTT4=
EXTT5=
EXTT6=
EXTT7=
EXTT8=
EXTT9=
PLAYORDER=
